<?xml version="1.0" encoding="UTF-8"?>
<svg width="638px" height="445px" viewBox="0 0 638 445" version="1.1" xmlns="http://www.w3.org/2000/svg" xmlns:xlink="http://www.w3.org/1999/xlink">
    <!-- Generator: Sketch 50.2 (55047) - http://www.bohemiancoding.com/sketch -->
    <title>ic_whyCF_simple</title>
    <desc>Created with Sketch.</desc>
    <defs>
        <rect id="path-1" x="32" y="0" width="458.647166" height="266.764168" rx="6"></rect>
        <filter x="-29.5%" y="-50.0%" width="159.1%" height="201.6%" filterUnits="objectBoundingBox" id="filter-2">
            <feMorphology radius="2.5" operator="dilate" in="SourceAlpha" result="shadowSpreadOuter1"></feMorphology>
            <feOffset dx="0" dy="2" in="shadowSpreadOuter1" result="shadowOffsetOuter1"></feOffset>
            <feGaussianBlur stdDeviation="44" in="shadowOffsetOuter1" result="shadowBlurOuter1"></feGaussianBlur>
            <feComposite in="shadowBlurOuter1" in2="SourceAlpha" operator="out" result="shadowBlurOuter1"></feComposite>
            <feColorMatrix values="0 0 0 0 0.830521254   0 0 0 0 0.84681107   0 0 0 0 0.987670068  0 0 0 1 0" type="matrix" in="shadowBlurOuter1"></feColorMatrix>
        </filter>
        <path d="M0.330154156,29.9010852 L0.278814395,29.8772736 L0.331087606,29.9010852 C0.330154156,29.9010852 0.330154156,29.9010852 0.330154156,29.9010852 M14.3505762,1.84158339 L12.5779543,1.0472309 C12.5788877,1.0472309 12.5788877,1.04627844 12.5788877,1.04627844 C12.8962608,0.749110596 13.2696409,0.479564126 13.6467547,0.256688246 L15.6863434,0.256688246 C15.5108548,0.611003747 15.0964029,1.12723762 14.3515096,1.84063093 L14.3505762,1.84158339" id="path-3"></path>
        <path d="M3.46252534,0.0394354498 C3.46252534,0.0394354498 10.8234596,17.7535901 12.6916721,17.7535901 C14.1868312,17.7535901 12.1311102,3.28865153 12.1311102,3.28865153 L18.2963098,3.28865153 C18.2963098,3.28865153 26.0489502,28.080768 19.8837505,32.6116362 C13.7195326,37.1425044 0.175727824,19.7920755 0.175727824,19.7920755 L3.46252534,0.0394354498" id="path-5"></path>
        <linearGradient x1="0%" y1="50.0001783%" x2="100.000359%" y2="50.0001783%" id="linearGradient-7">
            <stop stop-color="#D4EBDE" offset="0%"></stop>
            <stop stop-color="#B0DCDF" offset="100%"></stop>
        </linearGradient>
        <path d="M16.3843491,0.222604535 C18.8450133,0.246715468 21.191228,1.51935343 22.4441488,3.7291729 C22.8828719,4.50177107 23.1860626,5.35718506 23.1860626,6.24404809 C23.1860626,9.43507772 23.1860626,48.6090548 23.1860626,48.6090548 L0.150591444,48.6090548 L0.150591444,9.00003261 C0.150591444,9.00003261 0.622444635,0.193252094 8.86782816,0.193252094 C12.3776127,0.193252094 14.7810522,0.206880013 16.3843491,0.222604535" id="path-8"></path>
        <linearGradient x1="0%" y1="49.9989174%" x2="100%" y2="49.9989174%" id="linearGradient-10">
            <stop stop-color="#D4EBDE" offset="0%"></stop>
            <stop stop-color="#B0DCDF" offset="100%"></stop>
        </linearGradient>
        <path d="M12.5781803,0.420804246 C12.5781803,0.420804246 0.0813226693,15.2477235 0.0813226693,24.133998 C0.0813226693,33.0202725 10.2246633,48.683656 10.2246633,48.683656 L15.2351594,47.1167004 C15.2351594,47.1167004 10.7130927,27.7339835 10.7130927,22.5783599 C10.7130927,17.4237651 20.0019226,9.86369268 20.0019226,9.86369268" id="path-11"></path>
        <linearGradient x1="-0.000967211529%" y1="49.9989341%" x2="99.9985492%" y2="49.9989341%" id="linearGradient-13">
            <stop stop-color="#D4EBDE" offset="0%"></stop>
            <stop stop-color="#B0DCDF" offset="100%"></stop>
        </linearGradient>
    </defs>
    <g id="Home" stroke="none" stroke-width="1" fill="none" fill-rule="evenodd">
        <g transform="translate(-614.000000, -1974.000000)" id="Group-26">
            <g transform="translate(0.000000, 1950.000000)">
                <g id="Group-14" transform="translate(81.000000, 96.000000)">
                    <g id="ic_whyCF_simple" transform="translate(591.000000, 15.000000)">
                        <path d="M0.406349206,285.016453 L511.402392,285.016453" id="Line" stroke="#6B7AFE" stroke-width="8" stroke-linecap="round"></path>
                        <path d="M54.1610518,275.656307 L473.961482,275.656307" id="Line" stroke="#6B7AFE" stroke-width="8" opacity="0.300000012" stroke-linecap="round"></path>
                        <g id="Shadow">
                            <use fill="black" fill-opacity="1" filter="url(#filter-2)" xlink:href="#path-1"></use>
                            <use stroke-opacity="0.0485733696" stroke="#979797" stroke-width="5" fill="#FFFFFF" fill-rule="evenodd" xlink:href="#path-1"></use>
                        </g>
                        <rect id="Rectangle-4" stroke-opacity="0.0485733696" stroke="#979797" stroke-width="5" fill="#FFFFFF" x="32" y="0" width="458.647166" height="266.764168" rx="6"></rect>
                        <circle id="Oval-3" stroke="#979797" fill="#D8D8D8" opacity="0.300000012" cx="41.1846435" cy="8.42413163" r="1.87202925"></circle>
                        <g id="Group-39" transform="translate(47.736746, 71.137112)" opacity="0.400000006">
                            <rect id="Rectangle" stroke="#979797" fill="#D8D8D8" x="0.5" y="0.5" width="133.786106" height="135.658135" rx="4"></rect>
                            <path d="M22.9490692,77.6836424 L69.5205213,77.6836424" id="Line-2" stroke="#979797" stroke-width="5" stroke-linecap="round"></path>
                            <path d="M22.9490692,85.8180552 L69.5205213,85.8180552" id="Line-2" stroke="#979797" stroke-width="5" stroke-linecap="round"></path>
                            <path d="M22.9490692,93.952468 L69.5205213,93.952468" id="Line-2" stroke="#979797" stroke-width="5" stroke-linecap="round"></path>
                            <path d="M23.1409881,28.0637242 L111.466156,28.0637242" id="Line-2" stroke="#979797" stroke-width="5" stroke-linecap="round"></path>
                            <path d="M23.1409881,36.198137 L111.466156,36.198137" id="Line-2" stroke="#979797" stroke-width="5" stroke-linecap="round"></path>
                            <text id="₹-234" font-family="Helvetica" font-size="20" font-weight="normal" fill="#030303">
                                <tspan x="69.8289465" y="126.304134">₹ </tspan>
                                <tspan x="85.7762121" y="126.304134" font-family="AvenirNext-Bold, Avenir Next" font-weight="bold">234</tspan>
                            </text>
                        </g>
                        <g id="Group-40" transform="translate(194.691042, 71.137112)" opacity="0.400000006">
                            <rect id="Rectangle" stroke="#979797" fill="#D8D8D8" x="0.5" y="0.5" width="133.786106" height="135.658135" rx="4"></rect>
                            <path d="M14.8294243,93.952468 L61.4008764,93.952468" id="Line-2" stroke="#979797" stroke-width="5" stroke-linecap="round"></path>
                            <path d="M15.0213431,28.0637242 L103.346511,28.0637242" id="Line-2" stroke="#979797" stroke-width="5" stroke-linecap="round"></path>
                            <path d="M15.0213431,36.198137 L103.346511,36.198137" id="Line-2" stroke="#979797" stroke-width="5" stroke-linecap="round"></path>
                            <path d="M14.8294243,77.6836424 L61.4008764,77.6836424" id="Line-2" stroke="#979797" stroke-width="5" stroke-linecap="round"></path>
                            <path d="M14.8294243,85.8180552 L61.4008764,85.8180552" id="Line-2" stroke="#979797" stroke-width="5" stroke-linecap="round"></path>
                            <text id="₹-800" font-family="Helvetica" font-size="20" font-weight="normal" fill="#030303">
                                <tspan x="61.7093016" y="126.304134">₹ </tspan>
                                <tspan x="77.6565672" y="126.304134" font-family="AvenirNext-Bold, Avenir Next" font-weight="bold">800</tspan>
                            </text>
                        </g>
                        <g id="Group-40" transform="translate(340.709324, 71.137112)" opacity="0.400000006">
                            <rect id="Rectangle" stroke="#979797" fill="#D8D8D8" x="0.5" y="0.5" width="133.786106" height="135.658135" rx="4"></rect>
                            <path d="M14.8294243,93.952468 L61.4008764,93.952468" id="Line-2" stroke="#979797" stroke-width="5" stroke-linecap="round"></path>
                            <path d="M15.0213431,28.0637242 L103.346511,28.0637242" id="Line-2" stroke="#979797" stroke-width="5" stroke-linecap="round"></path>
                            <path d="M15.0213431,36.198137 L103.346511,36.198137" id="Line-2" stroke="#979797" stroke-width="5" stroke-linecap="round"></path>
                            <path d="M14.8294243,77.6836424 L61.4008764,77.6836424" id="Line-2" stroke="#979797" stroke-width="5" stroke-linecap="round"></path>
                            <path d="M14.8294243,85.8180552 L61.4008764,85.8180552" id="Line-2" stroke="#979797" stroke-width="5" stroke-linecap="round"></path>
                            <text id="₹-800" font-family="Helvetica" font-size="20" font-weight="normal" fill="#030303">
                                <tspan x="61.7093016" y="126.304134">₹ </tspan>
                                <tspan x="77.6565672" y="126.304134" font-family="AvenirNext-Bold, Avenir Next" font-weight="bold">800</tspan>
                            </text>
                        </g>
                        <circle id="Oval-3" stroke="#979797" fill="#D8D8D8" opacity="0.300000012" cx="48.6727605" cy="8.42413163" r="1.87202925"></circle>
                        <circle id="Oval-3" stroke="#979797" fill="#D8D8D8" opacity="0.300000012" cx="58.0329068" cy="8.42413163" r="1.87202925"></circle>
                        <g id="Group-11" transform="translate(409.974406, 212.943327) scale(-1, 1) translate(-409.974406, -212.943327) translate(380.021938, 124.489945)">
                            <path d="M32.0592543,171.241048 L45.1739619,171.226272 C46.9150228,171.39374 48.8616703,171.849843 49.1871823,173.238841 C49.1871823,173.238841 49.4152549,174.159914 49.3767074,175.077047 C48.9130669,175.578465 31.522802,175.01006 31.522802,175.01006 L31.4478486,174.952924 C29.6050651,172.912771 32.0592543,171.241048 32.0592543,171.241048" id="Fill-105" fill="#1B2441"></path>
                            <polyline id="Fill-106" fill="#1B2441" points="48.5459721 175.39413 30.7619942 175.283766 30.9166467 176.337092 48.5715697 176.337092 48.5459721 175.39413"></polyline>
                            <polyline id="Fill-107" fill="#FFFFFE" points="36.7827376 171.226272 38.0477296 171.234876 37.6535654 172.84927 36.4286773 172.84927 36.7827376 171.226272"></polyline>
                            <polyline id="Fill-108" fill="#FFFFFE" points="40.0219881 171.226272 41.2858343 171.234876 40.8928159 172.84927 39.666782 172.84927 40.0219881 171.226272"></polyline>
                            <path d="M30.7619942,166.357278 L31.7324672,170.056623 C32.8706619,170.507365 34.3477704,170.534572 35.5310765,170.127363 L35.7462231,170.052996 L36.4286773,166.357278 L30.7619942,166.357278" id="Fill-109" fill="#F0AB85"></path>
                            <path d="M1.29733348,171.241048 L14.4127822,171.226272 C16.1528707,171.39374 18.0996282,171.849843 18.4262294,173.238841 C18.4262294,173.238841 18.653244,174.159914 18.6146944,175.077047 C18.1510277,175.578465 0.760850802,175.01006 0.760850802,175.01006 L0.685893143,174.952924 C-1.15699445,172.912771 1.29733348,171.241048 1.29733348,171.241048" id="Fill-110" fill="#1B2441"></path>
                            <polyline id="Fill-111" fill="#1B2441" points="17.7829113 175.39413 0 175.283766 0.154652561 176.337092 17.8095756 176.337092 17.7829113 175.39413"></polyline>
                            <path d="M21.1492215,17.8529762 L10.5238401,24.9708561 L13.8033178,33.5976052 C13.8496709,33.7199167 13.9118261,33.8324866 13.9645,33.9515509 C14.1973187,33.9363972 14.4311908,33.922326 14.66717,33.922326 L14.7819991,33.9266556 L14.8926143,33.922326 C17.7370055,33.922326 20.181075,35.7191144 21.6654258,38.1404492 C23.3857558,38.0073136 25.0944974,37.5775998 26.6810356,36.8015171 C27.7619043,36.274387 28.7037138,35.6465934 29.0439873,34.9635974 C30.1806903,28.8447752 21.1492215,17.8529762 21.1492215,17.8529762" id="Fill-115" fill="#F0AB85"></path>
                            <path d="M35.2867206,20.1681145 C35.2867206,20.1681145 36.5579153,33.3186845 34.0000988,41.6918243 C35.187987,42.8185025 39.547691,47.921692 40.9186477,41.3054063 C42.2896044,34.6913672 39.3800497,17.8529762 39.3800497,17.8529762 L35.2867206,20.1681145" id="Fill-116" fill="#F0AB85"></path>
                            <polyline id="Fill-117" fill="#005C5A" points="28.7356736 17.8529762 25.9048372 19.3554422 26.9152537 21.0989719 29.952468 19.9949988 28.7356736 17.8529762"></polyline>
                            <path d="M27.2600139,20.1473536 C27.5893424,20.5888909 27.6143546,21.0084329 27.3128176,21.0866388 C27.0112806,21.16403 26.4985287,20.8691287 26.1692003,20.428406 C25.8384823,19.9868686 25.8148596,19.5656974 26.1163966,19.4883061 C26.416544,19.4109149 26.9292959,19.7058162 27.2600139,20.1473536" id="Fill-118" fill="#1B2441"></path>
                            <path d="M59.8948881,8.2991785 L59.904936,8.22882841 C59.4070065,7.14479752 58.5283731,5.42228629 57.3427204,3.83834341 C55.4280364,1.2790925 54.8821003,0 54.8821003,0 L27.5238895,17.0950713 L29.29567,20.287473 L59.897121,9.48980044 C59.8703266,9.09008403 59.8613951,8.69249945 59.8948881,8.2991785" id="Fill-119" fill="#1B2441"></path>
                            <polyline id="Fill-120" fill="#EC967C" points="18.7482114 37.0509902 17.8095756 43.0094427 26.1166622 43.0094427 26.7143634 35.7059524 18.7482114 37.0509902"></polyline>
                            <path d="M41.3423974,51.9359308 C41.3423974,51.9359308 51.6180123,48.7030419 54.8390438,44.3583655 C58.0600752,40.0125872 52.6098713,16.2309104 52.6098713,16.2309104 L53.3138792,11.9501425 C53.7099534,9.54035111 51.8378056,7.34873015 49.3676415,7.32669274 L46.621899,7.30355345 C45.4794202,7.29363662 44.7084702,8.45280466 45.1726022,9.4841557 L48.7830137,17.5079786 C48.7830137,17.5079786 51.4930537,35.5202601 47.6974357,36.8887836 C43.1721486,38.4809868 38.0477296,38.8644378 38.0477296,38.8644378 L41.3423974,51.9359308" id="Fill-121" fill="#F0AB85"></path>
                            <path d="M21.4932779,36.5174513 L18.9411982,30.8789897 L20.5998345,29.841427 C21.8252208,29.0753258 22.3608557,27.5720937 21.8941959,26.2083478 L20.0760546,20.8949964 C20.0760546,20.8949964 25.2481115,20.2651626 25.0918398,15.4668371 C25.0918398,12.9979313 21.6775709,12.9839827 21.6775709,12.9839827 C21.6775709,12.9839827 20.6569545,15.1921566 17.4894872,15.4539615 C16.1293839,15.2833591 12.396105,15.7822905 9.87743506,20.1589385 C8.18323345,23.1031703 8.92579382,27.7126529 10.4001372,31.1740567 C11.7225198,34.2738694 15.0958347,36.0056442 18.438973,36.5174513 L21.4932779,36.5174513" id="Fill-122" fill="#1B2441"></path>
                            <path d="M12.0452556,85.2073864 C12.0452556,85.2073864 12.5810864,97.5723236 15.2307145,110.977055 C16.0114964,114.925401 15.7184298,119.011725 14.4455585,122.827614 C8.43113218,140.861746 0,167.980276 0,167.980276 L7.5005364,167.980276 C7.5005364,167.980276 24.4929311,135.931004 28.8714335,120.032754 C33.2499358,104.134505 34.0000988,99.086758 34.0000988,99.086758 L28.7894186,85.2073864 L12.0452556,85.2073864" id="Fill-123" fill="#1B2441"></path>
                            <path d="M17.8880599,29.3461295 C17.5808232,30.294246 18.202923,31.5465833 19.2771621,32.1458753 C20.3514011,32.7440236 21.4713988,32.4626766 21.7786355,31.5157037 C22.0858722,30.5698746 21.4648618,29.3163936 20.3906228,28.7171016 C19.3152943,28.1178096 18.1952966,28.4003003 17.8880599,29.3461295" id="Fill-124" fill="#F0AB85"></path>
                            <path d="M35.6390771,85.2073864 L11.3333663,85.2073864 L11.3333663,53.5780694 C11.3333663,46.6491654 16.5329603,40.8601956 23.3346031,40.2163642 L40.2365442,38.1404492 C40.2365442,38.1404492 42.2244325,41.2262093 47.7620436,48.3965501 C41.1060416,52.5682244 33.4033821,54.4897963 33.4033821,54.4897963 L35.6390771,85.2073864" id="Fill-125" fill="#005C5A"></path>
                            <path d="M11.3333663,85.2073864 C11.3333663,85.2073864 14.8406643,97.8250973 27.7795853,111.967177 C29.9401431,114.103059 33.0521901,118.544811 32.6080877,124.827727 L29.9401431,167.980276 L37.6630824,167.980276 C37.6630824,167.980276 47.0780515,132.146021 45.0462834,114.480564 C43.0156255,96.8162102 36.1620165,85.2073864 36.1620165,85.2073864 L11.3333663,85.2073864" id="Fill-126" fill="#13374D"></path>
                            <path d="M55.4888799,6.09112014 C56.7856917,8.96857339 58.5464212,10.9360825 59.4213915,10.4851469 C60.295283,10.0353647 59.9521997,7.33667104 58.654309,4.45921779 C57.3574972,1.58176454 55.5967677,-0.38574458 54.7217974,0.064037692 C53.8479059,0.514973252 54.1909892,3.21366688 55.4888799,6.09112014" id="Fill-127" fill="#5BBDB7"></path>
                            <path d="M34.0000988,14.1859006 L34.2186503,14.2878088 C34.9893874,14.6517667 35.8730956,14.7068803 36.6818416,14.4406711 L36.8275426,14.3928367 C38.1610234,13.9550473 39.2020464,12.9162075 39.6275355,11.5966001 C39.8165245,11.010108 39.2939014,10.4412938 38.6825907,10.5671192 L37.0471499,10.9050801 C36.4115557,11.036105 35.8519795,11.4115015 35.4940618,11.9459997 L34.0000988,14.1859006" id="Fill-128" fill="#F0AB85"></path>
                        </g>
                        <g id="Group-9" transform="translate(225.579525, 115.129799)">
                            <polyline id="Fill-129" fill="#EC967C" points="42.8130525 38.1983122 30.9383944 61.0572565 25.8493902 56.0079082 41.0956199 35.8202572 42.8130525 38.1983122"></polyline>
                            <path d="M42.4186703,29.988601 C41.7377255,30.5801111 41.3216474,31.3771688 41.2485126,32.2289794 L40.3896722,35.3777163 L40.7998204,35.928835 L42.2644941,37.4484507 C42.2990849,36.7806456 42.1251426,37.4322941 42.1251426,37.4322941 L45.364819,33.5430475 C45.364819,33.5430475 48.8347714,32.0449739 45.1740754,28.8208396 C44.8242141,28.5129671 44.2905273,28.3917928 43.8546831,28.5901596 C42.7606252,29.0874231 42.4186703,29.988601 42.4186703,29.988601" id="Fill-130" fill="#EC967C"></path>
                            <path d="M18.5792492,76.5250949 C26.0853761,68.602567 31.5039443,60.7781926 31.5039443,60.7781926 L27.3610013,54.5444825 L20.5409488,60.8186088 L18.5792492,76.5250949" id="Fill-131" fill="#005C5A"></path>
                            <path d="M2.61803357,184.283447 L5.59188184,184.799963 C6.2064837,181.110703 15.4569289,163.616915 16.2089816,154.530751 C17.0435049,144.444941 19.3870426,133.215137 19.3870426,133.215137 L9.43854329,130.255481 C9.43854329,130.255481 6.91828297,130.255481 9.6859549,150.813014 C3.46433836,158.980055 1.79725538,177.513749 2.61803357,184.283447" id="Fill-132" fill="#EC967C"></path>
                            <path d="M10.5013148,123.742707 C10.5013148,123.742707 12.8479254,137.773114 16.1111038,152.780359 C12.7030486,161.842317 17.8969327,187.129383 17.9925317,187.039244 C18.3837977,186.672807 20.1784966,188.870447 20.1784966,188.870447 C20.1784966,188.870447 23.9659912,166.554065 24.8037145,156.489795 C25.6414377,146.426505 25.8493902,134.155777 25.8493902,134.155777 L10.5013148,123.742707" id="Fill-133" fill="#F0AB85"></path>
                            <path d="M16.4906235,185.61406 C16.4906235,185.61406 15.1286187,186.860563 15.3787443,188.448225 C15.6279261,190.035886 15.9818774,193.755027 15.9818774,193.755027 L17.381637,193.755027 L17.338219,190.286409 C17.3429383,190.060328 20.3406702,193.755027 20.8484724,193.755027 L28.255966,193.755027 C28.255966,193.755027 28.7486663,191.415798 24.3983683,190.663211 C20.0480704,189.910625 16.4906235,185.61406 16.4906235,185.61406" id="Fill-134" fill="#13374D"></path>
                            <path d="M6.0244356,182.772259 L5.80064737,186.009883 C5.75375841,186.691488 5.95516781,187.364124 6.37184017,187.926149 C6.83113886,188.546968 7.60480672,189.394988 8.88572788,190.37056 C6.46135546,191.099001 4.25650863,188.556933 3.09920382,186.867868 C2.53653629,186.04476 2.3170107,185.059223 2.47153114,184.091623 L2.87967823,181.543576 L6.0244356,182.772259" id="Fill-135" fill="#EC967C"></path>
                            <path d="M3.49361395,184.799963 C3.49361395,184.799963 1.55723102,184.982076 1.23611258,186.53156 C0.91499413,188.080028 0,191.213588 0,191.213588 L1.05620887,192.099734 L2.54476697,188.991609 C2.54476697,188.991609 5.7462792,193.531202 6.25503915,193.755027 L14.540282,193.755027 C14.540282,193.755027 14.540282,190.870728 9.35596006,190.739484 C4.57787232,190.618415 3.49361395,184.799963 3.49361395,184.799963" id="Fill-136" fill="#1B2441"></path>
                            <polyline id="Fill-137" fill="#EC967C" points="20.0119921 65.1277403 14.540282 65.1277403 16.7241467 58.6149663 21.0026295 61.2784613 20.0119921 65.1277403"></polyline>
                            <g id="Group-141" transform="translate(41.197466, 0.000000)">
                                <mask id="mask-4" fill="white">
                                    <use xlink:href="#path-3"></use>
                                </mask>
                                <g id="Clip-140"></g>
                                <path d="M0.330154156,29.9010852 L0.278814395,29.8772736 L0.331087606,29.9010852 C0.330154156,29.9010852 0.330154156,29.9010852 0.330154156,29.9010852 M14.3505762,1.84158339 L12.5779543,1.0472309 C12.5788877,1.0472309 12.5788877,1.04627844 12.5788877,1.04627844 C12.8962608,0.749110596 13.2696409,0.479564126 13.6467547,0.256688246 L15.6863434,0.256688246 C15.5108548,0.611003747 15.0964029,1.12723762 14.3515096,1.84063093 L14.3505762,1.84158339" id="Fill-139" mask="url(#mask-4)"></path>
                            </g>
                            <path d="M58.8551132,1.62819351 L56.5455411,1.62819351 C57.2907348,1.13021528 58.0507267,0.814096754 58.5158122,0.814096754 C58.922762,0.814096754 59.1045681,1.05576266 58.8551132,1.62819351" id="Fill-142" fill="#70A09E"></path>
                            <path d="M27.2200552,74.127918 C27.1900891,73.9481441 27.1494898,73.7961805 27.1146905,73.631305 C32.984183,65.8543461 37.9662919,60.3786916 37.9662919,60.3786916 L32.9793498,54.5444825 L21.6395907,65.6060396 L18.3133516,65.620938 C18.3133516,65.620938 13.8203671,62.5747141 9.89480566,66.7323578 C8.46126523,68.2510002 7.50621604,72.3728878 8.46416517,76.7291767 C11.1050502,88.737278 9.03835466,95.089951 9.03835466,95.089951 L24.3297748,100.947997 C24.3297748,100.947997 24.6768018,90.5062134 24.9165307,83.1811722 L24.9165307,83.1553484 C24.9638965,81.7270895 25.427888,80.3653767 26.157708,79.1476818 C26.9996592,77.7472332 27.5332495,76.0408711 27.2200552,74.127918" id="Fill-153" fill="#21837F"></path>
                            <polyline id="Fill-154" fill="#F0AB85" points="47.6598132 35.4879015 38.2457464 59.429063 32.3117377 55.1321537 45.5709867 33.3779669 47.6598132 35.4879015"></polyline>
                            <path d="M46.2767316,28.8471623 C45.7894722,29.616417 45.54097,30.590737 45.5783265,31.5806711 L45.2364328,35.3166053 L45.6343613,35.894327 L47.001936,37.4484507 C46.9540221,36.6760731 46.8858058,37.4484507 46.8858058,37.4484507 L49.0833456,32.5456226 C49.0833456,32.5456226 51.7413455,30.3606892 48.3898131,27.1368976 C48.069034,26.8287793 47.6199433,26.7611182 47.2869827,27.0463358 C46.4529571,27.7645845 46.2767316,28.8471623 46.2767316,28.8471623" id="Fill-155" fill="#F0AB85"></path>
                            <path d="M25.3811685,94.4352234 C25.3811685,94.4352234 27.4649771,104.806366 27.4649771,110.973907 C27.4649771,114.36291 26.615211,135.715661 26.615211,135.715661 C26.615211,135.715661 11.7304394,136.768255 8.83945214,136.768255 C8.12240013,119.271789 4.03896722,118.732915 4.03896722,110.572412 C4.03896722,107.025713 5.90092547,103.017538 7.33007747,100.462483 C8.35613532,98.6291511 8.99890707,97.3482375 9.394078,94.7902803 L9.49113753,94.4594099 L25.3811685,94.4352234" id="Fill-156" fill="#1B2441"></path>
                            <path d="M21.629476,46.403515 L12.1169017,49.7272687 L13.0545346,56.8147959 C13.0677806,56.9148862 13.0942728,57.0111996 13.1131957,57.1094014 C13.2958024,57.1424501 13.4793551,57.1754988 13.6610156,57.2208227 L13.7490074,57.2463174 L13.8351068,57.2633138 C16.0292246,57.8024796 17.5837461,59.6126034 18.2820035,61.7060017 C19.6340493,61.9335656 21.0324564,61.9354541 22.3996406,61.6540681 C23.3306505,61.46333 24.1736686,61.170613 24.5615893,60.7230393 C26.5693159,56.3521143 21.629476,46.403515 21.629476,46.403515" id="Fill-157" fill="#F0AB85"></path>
                            <path d="M22.9384745,52.7952141 C20.2622386,54.1128377 20.8939766,68.0051516 20.4312952,77.4675414 C20.1831477,82.5587672 16.3907425,86.7197886 11.3941793,87.5235091 C7.85091016,88.0931846 3.96161862,88.1987539 1.61558689,86.8512522 C3.16675578,85.5734661 11.5276451,73.1800361 8.85042051,56.7670076 C8.49747769,54.606822 8.45397773,48.5933593 12.0654627,45.3286804 C16.0763564,41.7034727 24.3532117,46.4331737 24.3532117,46.4331737 C24.3532117,46.4331737 26.6152095,50.985598 22.9384745,52.7952141" id="Fill-158" fill="#1B2441"></path>
                        </g>
                        <g id="Group-8" transform="translate(45.864717, 117.001828)">
                            <path d="M31.1568874,157.166216 C31.1568874,157.166216 32.2184265,158.829812 37.2243399,160.272906 C38.3263736,160.590561 39.5142174,160.808881 39.5142174,162.866545 C37.1770961,162.866545 34.5729027,162.866545 34.5729027,162.866545 L29.5207097,161.877556 L29.5207097,162.866545 L26.7921398,162.866545 C26.7921398,162.866545 26.0333467,157.813534 27.6271015,157.166216 C29.1022647,157.166216 31.1568874,157.166216 31.1568874,157.166216" id="Fill-159" fill="#1B2441"></path>
                            <path d="M32.256504,153.094552 L31.9253208,157.26573 C30.6535281,158.16269 28.9840694,158.220396 27.6568743,157.41125 L27.4180284,157.26573 L27.4180284,153.094552 L32.256504,153.094552" id="Fill-160" fill="#F0AB85"></path>
                            <path d="M6.15777326,157.166216 C6.15777326,157.166216 7.22031759,158.829812 12.2254606,160.272906 C13.3285012,160.590561 14.5154268,160.808881 14.5154268,162.866545 C12.178215,162.866545 9.57488495,162.866545 9.57488495,162.866545 L4.52249633,161.877556 L4.52249633,162.866545 L1.7938208,162.866545 C1.7938208,162.866545 1.03403411,157.813534 2.6278506,157.166216 C4.10403514,157.166216 6.15777326,157.166216 6.15777326,157.166216" id="Fill-161" fill="#1B2441"></path>
                            <path d="M7.2577134,155.53755 L6.92538361,159.708351 C5.65514529,160.606485 3.98611123,160.662932 2.65925376,159.853859 L2.4192378,159.708351 L2.4192378,155.53755 L7.2577134,155.53755" id="Fill-162" fill="#F0AB85"></path>
                            <path d="M33.8693292,70.0252633 L32.5589691,155.53755 L26.3111392,155.53755 C26.3111392,155.53755 16.8007591,86.4979374 18.8320226,70.0252633 C20.8622593,53.5515652 33.8693292,70.0252633 33.8693292,70.0252633" id="Fill-163" fill="#1B2441"></path>
                            <path d="M29.0308536,70.0326143 C29.0308536,70.0326143 26.8742307,96.2933163 21.9215331,110.829248 C16.9678172,125.366203 8.0246544,155.53755 8.0246544,155.53755 L1.6128252,155.53755 C1.6128252,155.53755 12.3205901,92.4901623 9.87173367,70.0326143 L29.0308536,70.0326143" id="Fill-164" fill="#17324A"></path>
                            <g id="Group-167" transform="translate(29.837266, 26.058647)">
                                <mask id="mask-6" fill="white">
                                    <use xlink:href="#path-5"></use>
                                </mask>
                                <g id="Clip-166"></g>
                                <path d="M3.46252534,0.0394354498 C3.46252534,0.0394354498 10.8234596,17.7535901 12.6916721,17.7535901 C14.1868312,17.7535901 12.1311102,3.28865153 12.1311102,3.28865153 L18.2963098,3.28865153 C18.2963098,3.28865153 26.0489502,28.080768 19.8837505,32.6116362 C13.7195326,37.1425044 0.175727824,19.7920755 0.175727824,19.7920755 L3.46252534,0.0394354498" id="Fill-165" fill="url(#linearGradient-7)" mask="url(#mask-6)"></path>
                            </g>
                            <path d="M9.6769512,72.012994 L11.9526056,77.1855886 C13.0493668,79.2176135 17.0768344,79.2691737 19.7521306,78.6237503 C20.1537756,78.5270749 20.2940007,78.0676366 20.0135504,77.7858968 C18.5451924,76.3044613 14.7330706,72.5092611 13.4119491,71.6612797 L9.6769512,72.012994" id="Fill-168" fill="#F0AB85"></path>
                            <g id="Group-171" transform="translate(9.676951, 22.801316)">
                                <mask id="mask-9" fill="white">
                                    <use xlink:href="#path-8"></use>
                                </mask>
                                <g id="Clip-170"></g>
                                <path d="M16.3843491,0.222604535 C18.8450133,0.246715468 21.191228,1.51935343 22.4441488,3.7291729 C22.8828719,4.50177107 23.1860626,5.35718506 23.1860626,6.24404809 C23.1860626,9.43507772 23.1860626,48.6090548 23.1860626,48.6090548 L0.150591444,48.6090548 L0.150591444,9.00003261 C0.150591444,9.00003261 0.622444635,0.193252094 8.86782816,0.193252094 C12.3776127,0.193252094 14.7810522,0.206880013 16.3843491,0.222604535" id="Fill-169" fill="url(#linearGradient-10)" mask="url(#mask-9)"></path>
                            </g>
                            <polyline id="Fill-172" fill="#5BBDB7" points="33.8693292 70.846947 33.8693292 33.3876417 34.6757418 33.414475 34.6757418 70.846947 33.8693292 70.846947"></polyline>
                            <path d="M18.5474898,15.4723218 L21.0180734,24.8870457 C21.0180734,24.8870457 23.1290791,26.6205569 25.923889,25.8703227 C28.7186988,25.1190664 28.183372,23.079942 28.183372,23.079942 L26.5996128,17.0463827 L22.1776115,17.0678471 L18.5474898,15.4723218" id="Fill-173" fill="#EC967C"></path>
                            <path d="M27.6960755,18.3335101 C28.5398725,18.0744759 29.2926914,17.7157342 29.6076156,17.2233637 C31.0242748,12.5278557 25.4236222,2.44299817 25.4236222,2.44299817 L16.9346646,6.51970238 L18.5282812,13.8682547 C18.9541787,15.8295133 20.2618641,17.4659513 22.0514336,18.274919 C23.8899912,18.8433551 25.8565181,18.8968066 27.6960755,18.3335101" id="Fill-174" fill="#F0AB85"></path>
                            <path d="M20.734159,6.14494 C20.734159,6.14494 23.7357583,5.90206111 26.6020634,4.46355099 C29.4693349,3.02399846 26.6629458,0 26.6629458,0 C26.6629458,0 24.7069777,1.73455134 20.5940329,2.23698749 C17.8185682,2.57680944 16.9623489,2.2234363 15.4934401,3.69843038 C13.4968837,5.70296297 15.1754986,10.0779101 15.1754986,10.0779101 L18.8226447,19.3073077 L19.3029393,19.1707534 C19.3029393,19.1707534 18.0157112,13.4292217 17.5373495,11.487233 C17.8224337,10.4573432 18.3674762,10.3020258 18.8419725,10.4020961 C19.3560906,10.5115479 19.7465111,10.9691609 19.8808389,11.5164202 L22.3335302,21.4807088 C22.3335302,21.4807088 28.8904688,22.5304043 30.2656381,21.6068391 C31.6408074,20.6811891 28.8218553,13.5845391 28.8218553,13.5845391 C28.8218553,13.5845391 26.8968116,13.2707771 25.957483,15.2690553 C25.0268519,17.2506551 23.009035,16.0466847 23.009035,16.0466847 L20.734159,6.14494" id="Fill-175" fill="#1B2441"></path>
                            <path d="M46.7719308,29.3159781 L46.5823764,28.2205799 C46.1639906,25.7954448 43.9858227,22.7781044 41.7905779,21.9869835 L39.5142174,21.9869835 L40.2194964,27.1606052 L43.4316749,29.3159781 L46.7719308,29.3159781" id="Fill-176" fill="#F0AB85"></path>
                            <path d="M17.575785,9.81977017 C18.1655398,9.63329914 18.8981052,10.009362 19.2119358,10.6569392 C19.5257665,11.3052966 19.3018536,11.9817417 18.7120988,12.1674325 C18.122344,12.3531234 17.3906601,11.9786209 17.0768295,11.3302635 C16.7629988,10.6819061 16.9860301,10.0062412 17.575785,9.81977017" id="Fill-177" fill="#F0AB85"></path>
                            <path d="M41.0666166,27.516704 L46.7719308,30.9446435 L43.1342849,30.9446435 L37.0949796,25.6972153 C37.0949796,25.6972153 37.5333429,24.7811968 38.9022667,25.5546221 C40.2700919,26.3291881 41.0666166,27.516704 41.0666166,27.516704" id="Fill-178" fill="#F0AB85"></path>
                            <g id="Group-181" transform="translate(0.000000, 25.244314)">
                                <mask id="mask-12" fill="white">
                                    <use xlink:href="#path-11"></use>
                                </mask>
                                <g id="Clip-180"></g>
                                <path d="M12.5781803,0.420804246 C12.5781803,0.420804246 0.0813226693,15.2477235 0.0813226693,24.133998 C0.0813226693,33.0202725 10.2246633,48.683656 10.2246633,48.683656 L15.2351594,47.1167004 C15.2351594,47.1167004 10.7130927,27.7339835 10.7130927,22.5783599 C10.7130927,17.4237651 20.0019226,9.86369268 20.0019226,9.86369268" id="Fill-179" fill="url(#linearGradient-13)" mask="url(#mask-12)"></path>
                            </g>
                            <path d="M10.4551252,47.1535095 C10.4551252,51.5675269 14.3592886,67.7034968 15.2775544,71.4628279 C15.0086191,71.5334113 14.8971592,71.5548932 14.4891547,71.6612797 C13.3612625,67.0160763 9.6769512,51.4918288 9.6769512,47.1535095 C9.6769512,41.8955607 19.2798842,34.5139733 19.6889113,34.2019744 L20.160315,34.8218804 C20.0641936,34.8955326 10.4551252,42.27712 10.4551252,47.1535095" id="Fill-182" fill="#5BBDB7"></path>
                            <path d="M37.1037605,18.1727377 C37.1037605,18.1727377 36.7435464,23.9703409 40.637382,28.0783393 C40.8781772,28.3318312 41.2560104,28.4974186 41.6455898,28.5015071 C42.4355157,28.5096843 42.9464715,28.1529559 43.3517123,27.9720363 C43.9478274,27.7073009 44.2033053,27.3383068 44.3119568,27.0449513 C44.403968,26.7945259 44.3364279,26.5195691 44.1465324,26.2916309 C43.340945,25.3246822 40.8067217,21.9679599 41.3764081,18.6296362 C39.4089346,17.3570664 37.1037605,18.1727377 37.1037605,18.1727377" id="Fill-183" fill="#005C5A"></path>
                            <path d="M44.5350522,27.6873126 C44.9361087,27.4369845 45.0014984,27.2918963 45.1137506,27.0190898 C45.2161944,26.7687616 45.1409963,26.4939116 44.9295697,26.2660619 C44.0326418,25.2994888 41.2110787,21.9440702 41.8453582,18.607043 C41.0715808,18.1574741 40.2520306,17.971516 39.5142174,17.9153199 C39.8662317,21.4577184 40.9876641,23.720889 44.5350522,27.6873126" id="Fill-184" fill="#21837F"></path>
                            <path d="M40.6156608,22.5554873 C41.0519321,23.2246003 41.8162393,23.694624 42.320782,23.6046011 C42.8269899,23.5154437 42.8819401,22.9017295 42.4456688,22.2326165 C42.0093976,21.5643691 41.2450903,21.0943454 40.7388825,21.1835028 C40.2343398,21.2735257 40.1777245,21.88724 40.6156608,22.5554873" id="Fill-185" fill="#005C5A"></path>
                            <polyline id="Fill-186" fill="#EC944F" points="40.32063 21.5175106 41.1270426 21.1726508 41.1194349 21.6595117 40.5919701 21.9869835 40.32063 21.5175106"></polyline>
                            <polyline id="Fill-187" fill="#DC3F5E" points="42.0596763 23.2443133 42.7398678 22.8306322 41.9334552 22.8013163 42.0596763 23.2443133"></polyline>
                            <path d="M42.228486,22.5554873 C42.6647573,23.2246003 43.4290645,23.694624 43.9336072,23.6046011 C44.4398151,23.5163093 44.4947653,22.9017295 44.058494,22.2326165 C43.6222228,21.5643691 42.8579155,21.0943454 42.3517077,21.1835028 C41.847165,21.2726601 41.7905497,21.88724 42.228486,22.5554873" id="Fill-188" fill="#5BBDB7"></path>
                            <path d="M45.1591056,26.3340162 C44.9684804,26.4114994 44.2997299,26.8729799 42.1382697,26.8729799 C40.5653517,26.8729799 39.8570178,24.7581457 39.5882675,23.607293 C39.4934758,23.2027853 39.4101424,22.6284985 39.8726428,22.3698415 L42.3997283,21.9869835 L45.1591056,26.3340162" id="Fill-194" fill="#F0AB85"></path>
                        </g>
                        <text id="14-Plans-found-for-y" opacity="0.600000024" font-family="AvenirNext-DemiBold, Avenir Next" font-size="24" font-weight="500" fill="#030303">
                            <tspan x="136" y="52">14 Plans found for you</tspan>
                        </text>
                        <path d="M38.7828439,15.4357876 L475.083133,15.4357876" id="Line-3" stroke="#979797" opacity="0.200000003" stroke-linecap="square"></path>
                        <g id="if_icon-111-search_314478" transform="translate(272.848263, 130.502568) rotate(-36.000000) translate(-272.848263, -130.502568) translate(257.404022, 115.066780)" fill="#1B2441" fill-rule="nonzero">
                            <path d="M19.3598766,22.2336952 C17.3558982,23.6610163 14.9038934,24.5005488 12.2557179,24.5005488 C5.48707147,24.5005488 0,19.0159145 0,12.2502744 C0,5.48463433 5.48707147,0 12.2557179,0 C19.0243643,0 24.5114358,5.48463433 24.5114358,12.2502744 C24.5114358,14.8972736 23.6715303,17.3481894 22.2435749,19.3512777 L30.2960159,27.4001421 C31.0893227,28.1930966 31.0827085,29.4618648 30.2957288,30.248495 L30.2619362,30.2822726 C29.4769694,31.0668908 28.1991387,31.0690312 27.4123175,30.2825596 L19.3598766,22.2336952 Z M12.2557179,21.6181313 C17.4317417,21.6181313 21.6277375,17.4239992 21.6277375,12.2502744 C21.6277375,7.07654958 17.4317417,2.88241751 12.2557179,2.88241751 C7.0796941,2.88241751 2.88369833,7.07654958 2.88369833,12.2502744 C2.88369833,17.4239992 7.0796941,21.6181313 12.2557179,21.6181313 Z" id="search" transform="translate(15.444241, 15.435788) scale(-1, 1) translate(-15.444241, -15.435788) "></path>
                        </g>
                    </g>
                </g>
            </g>
        </g>
    </g>
</svg>