<?xml version="1.0" encoding="UTF-8"?>
<svg width="617px" height="463px" viewBox="0 0 617 463" version="1.1" xmlns="http://www.w3.org/2000/svg" xmlns:xlink="http://www.w3.org/1999/xlink">
    <!-- Generator: Sketch 50.2 (55047) - http://www.bohemiancoding.com/sketch -->
    <title>ic_whyCF_fast</title>
    <desc>Created with Sketch.</desc>
    <defs>
        <rect id="path-1" x="0" y="0" width="438.123752" height="254.491018" rx="6"></rect>
        <filter x="-30.9%" y="-52.5%" width="161.9%" height="206.5%" filterUnits="objectBoundingBox" id="filter-2">
            <feMorphology radius="2.5" operator="dilate" in="SourceAlpha" result="shadowSpreadOuter1"></feMorphology>
            <feOffset dx="0" dy="2" in="shadowSpreadOuter1" result="shadowOffsetOuter1"></feOffset>
            <feGaussianBlur stdDeviation="44" in="shadowOffsetOuter1" result="shadowBlurOuter1"></feGaussianBlur>
            <feComposite in="shadowBlurOuter1" in2="SourceAlpha" operator="out" result="shadowBlurOuter1"></feComposite>
            <feColorMatrix values="0 0 0 0 0.832504735   0 0 0 0 0.849867049   0 0 0 0 1  0 0 0 1 0" type="matrix" in="shadowBlurOuter1"></feColorMatrix>
        </filter>
        <rect id="path-3" x="41.9161677" y="74.8502994" width="164.670659" height="95.8083832" rx="6"></rect>
        <filter x="-29.5%" y="-48.5%" width="158.9%" height="201.2%" filterUnits="objectBoundingBox" id="filter-4">
            <feMorphology radius="2.5" operator="dilate" in="SourceAlpha" result="shadowSpreadOuter1"></feMorphology>
            <feOffset dx="0" dy="2" in="shadowSpreadOuter1" result="shadowOffsetOuter1"></feOffset>
            <feGaussianBlur stdDeviation="15" in="shadowOffsetOuter1" result="shadowBlurOuter1"></feGaussianBlur>
            <feComposite in="shadowBlurOuter1" in2="SourceAlpha" operator="out" result="shadowBlurOuter1"></feComposite>
            <feColorMatrix values="0 0 0 0 0.418737007   0 0 0 0 0.478551908   0 0 0 0 0.995774872  0 0 0 0.243857563 0" type="matrix" in="shadowBlurOuter1"></feColorMatrix>
        </filter>
        <rect id="path-5" x="299.401198" y="44.9101796" width="184.630739" height="106.786427" rx="6"></rect>
        <filter x="-26.3%" y="-43.5%" width="152.5%" height="190.8%" filterUnits="objectBoundingBox" id="filter-6">
            <feMorphology radius="2.5" operator="dilate" in="SourceAlpha" result="shadowSpreadOuter1"></feMorphology>
            <feOffset dx="0" dy="2" in="shadowSpreadOuter1" result="shadowOffsetOuter1"></feOffset>
            <feGaussianBlur stdDeviation="15" in="shadowOffsetOuter1" result="shadowBlurOuter1"></feGaussianBlur>
            <feComposite in="shadowBlurOuter1" in2="SourceAlpha" operator="out" result="shadowBlurOuter1"></feComposite>
            <feColorMatrix values="0 0 0 0 0.418737007   0 0 0 0 0.478551908   0 0 0 0 0.995774872  0 0 0 0.243857563 0" type="matrix" in="shadowBlurOuter1"></feColorMatrix>
        </filter>
    </defs>
    <g id="Home" stroke="none" stroke-width="1" fill="none" fill-rule="evenodd">
        <g transform="translate(-27.000000, -2483.000000)" id="Group-2">
            <g transform="translate(86.000000, 2570.000000)">
                <g id="Group-30">
                    <g id="ic_whyCF_fast">
                        <g id="Group-43" transform="translate(30.938124, 0.000000)">
                            <g id="Rectangle-4">
                                <use fill="black" fill-opacity="1" filter="url(#filter-2)" xlink:href="#path-1"></use>
                                <use stroke-opacity="0.0485733696" stroke="#979797" stroke-width="5" fill="#FFFFFF" fill-rule="evenodd" xlink:href="#path-1"></use>
                            </g>
                            <path d="M6.48570936,18.6742556 L423.793062,18.6742556" id="Line-3" stroke="#979797" opacity="0.200000003" stroke-linecap="square"></path>
                        </g>
                        <g id="Group-46" transform="translate(0.000000, 262.475050)" stroke="#6B7AFE" stroke-linecap="round" stroke-width="8">
                            <path d="M0.970733898,10.3638876 L499.359738,10.3638876" id="Line"></path>
                            <path d="M25.1372785,1.38185168 L474.656394,1.38185168" id="Line" opacity="0.300000012"></path>
                        </g>
                        <g id="Rectangle-4">
                            <use fill="black" fill-opacity="1" filter="url(#filter-4)" xlink:href="#path-3"></use>
                            <use stroke-opacity="0.0485733696" stroke="#979797" stroke-width="5" fill="#FFFFFF" fill-rule="evenodd" xlink:href="#path-3"></use>
                        </g>
                        <text id="Payment-Complete" opacity="0.600000024" font-family="AvenirNext-DemiBold, Avenir Next" font-size="16" font-weight="500" fill="#030303">
                            <tspan x="116.766467" y="116.754491">Payment </tspan>
                            <tspan x="116.766467" y="138.754491">Complete</tspan>
                        </text>
                        <g id="Group-23" transform="translate(54.890220, 97.804391)">
                            <path d="M48.9021956,24.4510978 C48.9021956,37.9551131 37.9551131,48.9021956 24.4510978,48.9021956 C10.9470825,48.9021956 0,37.9551131 0,24.4510978 C0,10.9470825 10.9470825,0 24.4510978,0 C37.9551131,0 48.9021956,10.9470825 48.9021956,24.4510978" id="Fill-12" fill="#3BAB47"></path>
                            <polyline id="Fill-13" fill="#FFFFFE" points="19.9795805 36.1876248 9.78043912 26.0459704 13.2608198 22.5852624 19.9795805 29.2660456 35.6413758 13.6926148 39.1217565 17.1533228 19.9795805 36.1876248"></polyline>
                        </g>
                        <g id="Rectangle-4-Copy">
                            <use fill="black" fill-opacity="1" filter="url(#filter-6)" xlink:href="#path-5"></use>
                            <use stroke-opacity="0.0485733696" stroke="#979797" stroke-width="5" fill="#FFFFFF" fill-rule="evenodd" xlink:href="#path-5"></use>
                        </g>
                        <g id="Group-10" transform="translate(217.564870, 133.732535)">
                            <path d="M97.2783556,220.666581 L98.4672446,226.59948 C96.257289,227.876292 93.360145,227.957383 91.0530291,226.807367 L90.6378895,226.59948 L88.8819376,220.666581 L97.2783556,220.666581" id="Fill-211" fill="#F0AB85"></path>
                            <path d="M43.183807,61.5118945 C49.4730619,81.796508 70.5827152,112.939588 70.5827152,112.939588 L53.909327,106.271475 L42.124453,79.666082 C42.124453,79.666082 36.8927925,41.2255616 43.183807,61.5118945" id="Fill-212" fill="#A0D2BB"></path>
                            <path d="M84.6464073,143.513598 L97.5958531,223.272879 L86.0848495,223.272879 C86.0848495,223.272879 60.2275515,151.512375 57.511842,130.413675 C57.511842,118.463111 83.6498962,130.413675 83.6498962,130.413675 L84.6464073,143.513598" id="Fill-213" fill="#1B2441"></path>
                            <polyline id="Fill-214" fill="#EC967C" points="44.4409688 29.2526303 40.0370259 39.963239 30.4987041 33.4804582 36.9357828 20.8503856 44.4409688 29.2526303"></polyline>
                            <path d="M46.8424225,30.2055694 C48.3222637,30.4582571 49.7327374,30.5205867 50.5687054,30.1112327 C56.1038809,25.1080172 54.7521029,8.39188655 54.7521029,8.39188655 L48.5677182,4.34383032 L38.8242441,7.72479114 L35.9997394,18.18606 C35.2455895,20.9791009 36.0762216,23.9675536 38.2372878,26.2333195 C40.6473658,28.2261828 43.619499,29.6547104 46.8424225,30.2055694" id="Fill-215" fill="#F0AB85"></path>
                            <path d="M42.1241909,11.8483253 C42.9836534,10.1062163 45.0431869,9.2857842 46.8715302,9.98402428 C48.2039619,10.4919939 49.8134687,11.0278932 51.4070923,11.3578116 C55.1979045,12.1415861 62.2712636,12.0752533 63.4801586,6.36539506 C64.6872887,0.657282388 57.1815511,1.14605045 57.1815511,1.14605045 L47.2103737,1.82508893 C44.2578463,2.02583295 41.3247319,1.43582008 38.6122186,0.266267942 C36.2138416,-0.765381779 34.0854806,1.43232888 33.5719208,2.90386985 C32.4477368,6.12624783 33.6213355,11.6336165 34.60257,15.1649657 C35.1708388,17.2090635 36.1061882,19.1292238 37.353909,20.8503856 L42.1241909,11.8483253" id="Fill-216" fill="#1B2441"></path>
                            <path d="M36.43705,14.125702 C37.3265878,13.5939197 38.7031789,14.0351509 39.5144123,15.1102402 C40.3256457,16.1853296 40.2630022,17.4876201 39.3734644,18.0194025 C38.4854927,18.5495384 37.1073355,18.1099536 36.2961021,17.0332179 C35.4848687,15.9581285 35.5490783,14.655838 36.43705,14.125702" id="Fill-217" fill="#F0AB85"></path>
                            <path d="M99.3631741,227.355604 C99.3631741,227.355604 99.3958096,234.371505 114.15563,238.583014 C117.18214,239.445652 116.197923,240.301729 116.766467,241.516966 C111.920959,241.516966 99.7822822,241.516966 99.7822822,241.516966 L93.1332349,234.379705 L91.0634592,236.075461 L86.267763,231.578593 C86.267763,231.578593 87.1025439,225.067811 90.7525634,225.010411 C93.7653324,225.991128 99.3631741,227.355604 99.3631741,227.355604" id="Fill-218" fill="#1B2441"></path>
                            <path d="M56.6404504,218.176985 L53.9867695,224.747667 C51.5693753,225.485627 48.9718744,224.639457 47.3459578,222.581684 L47.0551434,222.21093 L49.1998993,215.453984 L56.6404504,218.176985" id="Fill-219" fill="#F0AB85"></path>
                            <path d="M43.4215821,37.6602408 C43.4215821,37.6602408 44.6359724,35.8382404 33.8309209,30.4068123 C17.5459996,46.2395464 12.1994816,106.858226 12.1994816,106.858226 C12.1994816,106.858226 50.2794204,106.858226 54.7849331,106.858226 C56.2233545,72.2644194 43.4215821,37.6602408 43.4215821,37.6602408" id="Fill-220" fill="#005C5A"></path>
                            <path d="M80.9899841,105.516153 C81.1775686,104.690618 80.8200963,103.835925 80.1069214,103.411312 L73.1981503,99.2854594 C71.4904238,98.2649305 69.4747756,97.9296138 67.5405321,98.3432925 L60.0495412,98.6512736 L59.069147,99.8704412 L57.511842,106.687939 C59.0178267,106.314353 59.8991197,106.079267 59.8991197,106.079267 L64.6542089,106.214122 C64.6542089,106.214122 73.6299485,114.7975 78.0788856,107.331237 C78.2647004,115.276784 80.5245623,114.666289 80.5245623,114.666289 L80.9899841,105.516153" id="Fill-221" fill="#F0AB85"></path>
                            <path d="M10.3724064,106.858226 L9.73594127,112.006316 L9.7113266,112.214249 C8.58256802,122.042578 15.1511693,131.153536 24.8141867,133.822017 C24.8141867,133.822017 43.9819842,140.077354 68.1764496,141.38387 C52.2929527,161.480653 47.9009918,217.873982 47.9009918,217.873982 L58.133663,221.535347 L97.6507623,128.772696 C100.175525,122.846588 96.6063969,116.11647 90.2276802,114.778764 L52.4828373,106.858226 L10.3724064,106.858226" id="Fill-222" fill="#13374D"></path>
                            <path d="M36.9792177,57.0823115 C36.9792177,57.0823115 29.2940911,64.0395226 24.76988,71.1739442 C23.5134419,73.1573373 23.7013044,75.7234798 25.2524625,77.4904717 C33.8493254,87.279641 64.4829743,96.6803107 64.4829743,96.6803107 L62.4992155,107.726992 C62.4992155,107.726992 19.030595,99.2754203 3.63276564,84.0063609 C-12.1649178,68.3402821 28.6770749,35.6194087 28.6770749,35.6194087" id="Fill-223" fill="#005C5A"></path>
                            <path d="M25.5115084,70.9884716 C24.3760925,72.8267788 24.5499694,75.1537724 25.9444617,76.7821386 C29.90016,81.4061342 40.4544848,86.3441592 49.6664802,89.9237422 C49.6543088,90.4988748 49.6769128,90.5359232 49.6664802,91.2204368 C39.9954499,87.533237 29.3281052,82.6516667 25.0090043,77.6042607 C23.2563256,75.5577766 23.0389796,72.6309515 24.463031,70.3198358 C29.0186044,62.9472004 36.8117648,55.6733608 36.8882706,55.6010282 L37.7246182,56.5272386 C37.6463737,56.5978071 29.9766658,63.7587372 25.5115084,70.9884716" id="Fill-224" fill="#21837F"></path>
                            <path d="M12.374096,90.3516708 C29.8103276,99.6735785 55.3598253,106.350682 64.4829743,108.241102 C64.3911668,108.754725 64.30836,109.177394 64.211152,109.464524 C55.4318312,107.68646 30.1235533,101.250117 12.1994816,91.8122873 C12.2228836,91.3236317 12.2966896,90.8100083 12.374096,90.3516708" id="Fill-225" fill="#21837F"></path>
                            <polyline id="Fill-226" fill="#FFFFFE" points="96.8579262 118.152185 109.795335 72.7606501 107.420703 72.1075834 95.0812858 115.393658 57.9330358 109.060272 57.511842 111.444646 96.8579262 118.152185"></polyline>
                            <path d="M53.7909078,224.690266 C53.7909078,224.690266 53.2120577,231.763567 67.97016,235.976716 C70.998388,236.840993 70.014171,237.695431 70.5827152,238.910668 C65.7372069,238.910668 53.5968127,238.910668 53.5968127,238.910668 L46.9477654,231.771767 L44.8797073,233.469163 L40.0840111,228.970655 C40.0840111,228.970655 42.3238348,222.461512 45.975572,222.404113 C48.988341,223.38483 53.7909078,224.690266 53.7909078,224.690266" id="Fill-227" fill="#1B2441"></path>
                        </g>
                        <g id="Group-42" transform="translate(236.526946, 79.840319) rotate(-36.000000) translate(-236.526946, -79.840319) translate(191.616766, 37.924152)" fill="#5BBDB7">
                            <path d="M79.5495765,80.2407154 C78.3223195,79.8032154 77.10629,79.2696575 75.9360344,78.654887 C75.667437,78.5142932 75.3401108,78.6208302 75.1993347,78.8906655 C75.0611495,79.1613741 75.1647884,79.4940836 75.4333858,79.6355507 C76.647688,80.2730258 77.9120823,80.8275417 79.1868405,81.2816335 C79.6488971,81.4466785 80.1144084,81.5994978 80.5807833,81.7409649 C80.7517875,81.7933601 80.9288372,81.7566834 81.0627041,81.6562593 C81.1542518,81.5872723 81.2259353,81.4894679 81.2604816,81.3715787 C81.3468474,81.079912 81.1827525,80.7716535 80.8951546,80.6843282 C80.4434618,80.5481006 79.9960873,80.3987743 79.5495765,80.2407154" id="Fill-34"></path>
                            <path d="M5.86679973,0.877906503 C4.16366753,1.09883964 2.39057909,1.38177377 0.446486507,1.74504722 C0.150252053,1.80093545 -0.0440708398,2.08823584 0.00861225559,2.38863505 C0.0638863228,2.68728774 0.348893232,2.88638954 0.644264029,2.83137457 C2.5684925,2.47159413 4.32258047,2.19127976 6.00498489,1.97296638 C6.10085086,1.96074083 6.18721659,1.92319093 6.26062746,1.86817596 C6.41435846,1.75377976 6.50331516,1.56079073 6.47740544,1.35557616 C6.43854086,1.0525572 6.16562515,0.838610096 5.86679973,0.877906503" id="Fill-35"></path>
                            <path d="M14.9582474,0.99758998 C15.0921143,0.898039082 15.1776164,0.738233693 15.1802073,0.558343473 C15.1819346,0.254451258 14.9401106,0.00470075878 14.6378305,0.0020809983 C12.8880608,-0.0136375646 11.0355159,0.0597157288 9.13546988,0.221267625 C8.83664445,0.245718723 8.6112299,0.513807545 8.63886693,0.816826507 C8.66304933,1.12071872 8.92732847,1.34689138 9.22788121,1.32069377 C11.0942446,1.16350814 12.9113796,1.0910281 14.6300576,1.10587341 C14.7518333,1.10674667 14.8666997,1.06657701 14.9582474,0.99758998" id="Fill-36"></path>
                            <path d="M69.1558889,73.5132159 C68.9399746,73.3001421 68.5953753,73.2966491 68.3837793,73.5228217 C68.1739106,73.7411351 68.1773652,74.0895632 68.3941432,74.3026371 C69.7164025,75.6090243 71.1656195,76.7992688 72.7012021,77.840187 C72.8972523,77.9737948 73.1503039,77.960696 73.3299447,77.8253417 L73.4586296,77.6899874 C73.6261791,77.4358706 73.5596775,77.0935553 73.3092169,76.9241441 C71.8306356,75.9207758 70.4315108,74.7724475 69.1558889,73.5132159" id="Fill-37"></path>
                            <path d="M66.9887166,71.9123853 C67.2227677,71.718523 67.2564504,71.3709681 67.0647184,71.1351897 C66.7572564,70.7544512 66.4567037,70.3667266 66.1673785,69.9711428 C65.3918142,68.9118863 64.6853426,67.7958683 64.0712822,66.6553993 C63.9270515,66.3881837 63.5954071,66.2886328 63.3311279,66.4344661 C63.0728944,66.5794262 62.9675282,66.9165021 63.1126226,67.1837176 C63.7508654,68.3695959 64.4841104,69.52753 65.2907663,70.6278294 C65.5904554,71.0382585 65.9013721,71.4408284 66.2217889,71.8346657 C66.4066116,72.0634581 66.7348013,72.1027546 66.9679888,71.9281039 L66.9887166,71.9123853" id="Fill-38"></path>
                            <path d="M62.0316863,64.8113093 L62.1491437,64.7440688 C62.3443302,64.5973622 62.425514,64.3292734 62.3279207,64.0908752 C61.6810414,62.4989341 61.1369373,60.8091886 60.6671077,58.9255808 C60.5936969,58.6295478 60.2965988,58.4505309 60.0046826,58.5247574 C59.7144937,58.598984 59.534853,58.9002564 59.6091276,59.1945428 C60.0910483,61.1305458 60.6506983,62.8700668 61.319169,64.5109101 C61.4331718,64.792971 61.7535886,64.9265788 62.0316863,64.8113093" id="Fill-39"></path>
                            <path d="M47.624896,17.5068011 C48.0800434,18.0674298 48.5205086,18.6394109 48.9462917,19.2209977 C49.59058,20.0994907 50.2046404,21.0085476 50.7729269,21.9245905 C50.9327035,22.1830735 51.2703935,22.2607931 51.526036,22.098368 L51.5605823,22.0747901 C51.7868605,21.9053789 51.8507712,21.5840216 51.6970402,21.3386374 C51.1149351,20.3990167 50.4844653,19.4655087 49.8246311,18.5643111 C49.3867569,17.9678789 48.9350641,17.3810526 48.4686892,16.8064518 C48.2769573,16.5715466 47.9504948,16.5051793 47.7000342,16.7304787 C47.4677104,16.9234678 47.4340277,17.2710226 47.624896,17.5068011" id="Fill-40"></path>
                            <path d="M52.7445647,24.3862203 C53.5797213,26.0017393 54.3077844,27.6766395 54.9080262,29.3655117 C55.0099378,29.6528121 55.3225817,29.8012652 55.606725,29.6973481 L55.7466374,29.6222483 C55.9349147,29.4807812 56.0186895,29.2257912 55.9349147,28.9917592 C55.3182634,27.2566046 54.5703362,25.5345487 53.7127245,23.8744938 C53.572812,23.6037852 53.2428949,23.499868 52.9768885,23.6404618 C52.7126094,23.7784359 52.6046522,24.1146385 52.7445647,24.3862203" id="Fill-41"></path>
                            <path d="M41.6544331,11.4581015 C43.043194,12.6107961 44.3723626,13.8569288 45.6056652,15.1633161 C45.7973971,15.3676574 46.1074501,15.390362 46.3250918,15.2270636 L46.3777749,15.1816544 C46.5954165,14.9720736 46.6031894,14.6227722 46.3959117,14.401839 C45.132381,13.0631414 43.7703935,11.7855716 42.3479499,10.6049328 C42.1156261,10.4119438 41.7701632,10.4433809 41.5792949,10.6817791 C41.3884266,10.9175576 41.4221093,11.2642392 41.6544331,11.4581015" id="Fill-42"></path>
                            <path d="M31.3537714,4.70743989 C31.5394577,4.79039897 31.7467355,4.76070835 31.8987392,4.64631214 C31.9730137,4.59129717 32.0334697,4.51707063 32.073198,4.42625226 C32.1958373,4.1476844 32.070607,3.82108759 31.7951003,3.69795885 C30.1040593,2.94172132 28.3594716,2.29289398 26.6114292,1.76894188 C26.319513,1.68336304 26.017233,1.85015446 25.9325946,2.14094787 C25.8462288,2.43348779 26.012051,2.73999977 26.3013762,2.82732512 C28.0045084,3.33817841 29.7050496,3.97041394 31.3537714,4.70743989" id="Fill-43"></path>
                            <path d="M58.2557276,47.6240714 C58.3550482,47.6118458 58.4448686,47.5742959 58.5191431,47.5192809 C58.6694195,47.405758 58.7592398,47.2153887 58.7359211,47.0127939 L58.6590556,46.3185574 C58.4776875,44.718757 58.2971832,43.1172101 58.0881781,41.5226492 C58.0484499,41.2205035 57.7738068,41.0083029 57.4758451,41.0475993 C57.1770196,41.0895155 56.9671509,41.3645903 57.0060155,41.6676093 C57.2141569,43.2560574 57.3937976,44.8506183 57.5734383,46.4434326 L57.6520312,47.1376692 C57.6857138,47.4406881 57.9560385,47.6581282 58.2557276,47.6240714" id="Fill-44"></path>
                            <path d="M38.5548002,9.13940327 C38.7525777,9.28087034 39.0099476,9.2703913 39.1939066,9.13241724 L39.3156823,9.00666874 C39.4892774,8.7577915 39.4305487,8.41372962 39.1844064,8.23820567 C37.6790517,7.16497713 36.0976952,6.17820068 34.4861107,5.30494719 C34.2192405,5.16086036 33.8910508,5.26303102 33.7476837,5.53024659 C33.6051802,5.79833541 33.7045008,6.13366475 33.9705072,6.27775158 C35.5440908,7.12917373 37.0865828,8.09237233 38.5548002,9.13940327" id="Fill-45"></path>
                            <path d="M58.3427659,49.7797244 C58.0413495,49.8190209 57.8314808,50.0923492 57.8694817,50.3971147 C58.1372155,52.5461915 58.4006309,54.2900787 58.6968654,55.8855129 C58.7521395,56.1850388 59.0371464,56.3823941 59.3342445,56.3256326 C59.4188829,56.3099141 59.4940211,56.2758572 59.5579317,56.226955 C59.7202993,56.1055727 59.809256,55.8968652 59.7703914,55.6811716 C59.4776116,54.108442 59.2167871,52.3855129 58.9516443,50.2582674 C58.914507,49.9561216 58.6407277,49.7421745 58.3427659,49.7797244" id="Fill-46"></path>
                            <path d="M83.5616122,81.2227119 C83.267105,81.1650772 82.9795072,81.3589395 82.9216421,81.6584654 C82.8629134,81.9571181 83.055509,82.2470383 83.3517435,82.3055463 C85.0531483,82.6452419 86.8443736,82.8792738 88.8264671,83.0207409 C88.9620613,83.0303467 89.0881553,82.9893037 89.1900668,82.9133307 C89.3127062,82.8207658 89.3973446,82.6758057 89.4094358,82.5090143 C89.4301635,82.2042489 89.2038853,81.9413996 88.9033326,81.9195682 C86.9670129,81.7815942 85.2198342,81.5519285 83.5616122,81.2227119" id="Fill-47"></path>
                            <path d="M55.6784147,32.3295036 C55.3890895,32.409843 55.2137671,32.7102422 55.2932235,33.0054018 C55.7233249,34.6287801 56.0921065,36.3761603 56.418569,38.3479667 C56.4686611,38.6492392 56.7502134,38.8509607 57.0464479,38.8011853 C57.1345409,38.78634 57.2139974,38.7505366 57.2813626,38.6998879 C57.4411392,38.5811254 57.5300959,38.3776573 57.494686,38.1654567 C57.1630416,36.1578469 56.7873507,34.3772831 56.3468854,32.7198479 C56.2691563,32.4255615 55.9694672,32.2500376 55.6784147,32.3295036" id="Fill-48"></path>
                            <path d="M19.7733644,1.06245412 C19.136849,0.986481067 18.4986063,0.924480069 17.8594998,0.87470462 C17.5615381,0.852873283 17.2972589,1.07991919 17.2748039,1.38381141 C17.2514851,1.68770362 17.4768997,1.95317268 17.7783161,1.97587727 C18.401013,2.02303296 19.0228462,2.08416071 19.6455431,2.15838725 C20.7985256,2.29723456 21.9627357,2.49109684 23.1070816,2.73560781 C23.2651309,2.7696647 23.4240438,2.73036829 23.5440922,2.63954993 C23.6485947,2.56183037 23.7245966,2.44830741 23.7530973,2.31120662 C23.8161443,2.01255392 23.6270033,1.71914075 23.3316325,1.6562665 C22.1570586,1.40476949 20.9591659,1.20566769 19.7733644,1.06245412" id="Fill-49"></path>
                        </g>
                        <g id="if_paper_plane_1936915" transform="translate(230.039920, 61.876248) rotate(62.000000) translate(-230.039920, -61.876248) translate(210.578842, 50.898204)" fill-rule="nonzero">
                            <polygon id="Shape" fill="#FFFFFF" points="38.0572189 0 7.78443114 11.36273 8.55125285 21.1116229"></polygon>
                            <polygon id="Shape" fill="#D4D6D6" points="13.8389887 16.5484134 7.78443114 20.267158 10.4080727 13.5114387"></polygon>
                            <path d="M8.11056914,21.9560878 C8.01016063,21.9560878 7.90975211,21.9228585 7.8428131,21.8231705 C7.74240459,21.6902532 7.7758741,21.457648 7.90975211,21.35796 L37.5302639,0.0579630126 C37.6641419,-0.0417249608 37.8984284,-0.00849563631 37.9988369,0.124421661 C38.0992454,0.257338959 38.0657759,0.48994423 37.9318979,0.589632204 L8.27791667,21.8896292 C8.24444716,21.9560878 8.17750815,21.9560878 8.11056914,21.9560878 Z" id="Shape" fill="#074370"></path>
                            <polygon id="Shape" fill="#FFFFFF" points="0.864936793 5.34044589 38.9221557 2.27373675e-13 18.6023192 20.267158"></polygon>
                            <polygon id="Shape" fill="#EAEAEA" points="37.1922821 0.844464916 7.78443114 11.6536158 8.36574912 21.1116229 11.3407294 13.7125017"></polygon>
                            <path d="M17.7638607,20.267158 C17.6970007,20.267158 17.5967108,20.2349979 17.5298508,20.2028378 L10.2421131,14.156743 C10.1083931,14.0281027 10.0749631,13.8351422 10.2086831,13.7065019 C10.342403,13.5778616 10.542983,13.5457015 10.6767029,13.6743418 L17.7304307,19.5274762 L36.7855248,0.778150171 L1.08229591,5.69864224 L7.90201378,11.3588161 C8.03573374,11.4874564 8.06916373,11.6804169 7.93544377,11.8090572 C7.80172381,11.9376976 7.60114388,11.9698576 7.46742392,11.8412173 L0.112826215,5.73080232 C0.0125362461,5.63432209 -0.0208937435,5.50568177 0.0125362461,5.40920153 C0.0459662356,5.28056122 0.146256204,5.18408098 0.279976163,5.18408098 L37.6881345,0.00630827739 C37.8218544,-0.0258518015 37.9555744,0.0706284352 38.0224344,0.167108672 C38.0892944,0.295748988 38.0558644,0.424389303 37.9555744,0.553029619 L17.9978706,20.1706778 C17.9310107,20.2349979 17.8641507,20.267158 17.7638607,20.267158 Z" id="Shape" fill="#074370"></path>
                            <path d="M8.31889542,21.9560878 C8.28469291,21.9560878 8.2504904,21.9560878 8.21628788,21.9560878 C8.04527532,21.8896314 7.94266777,21.7234903 7.97687029,21.524121 L10.3710462,14.081001 C10.4052488,13.9813164 10.4736538,13.9148599 10.5420588,13.8816317 L32.32906,3.08246205 L8.2504904,12.220221 C8.07947783,12.2866774 7.87426275,12.1869928 7.80585772,12.0208517 C7.73745269,11.8547107 7.84006023,11.6553414 8.0110728,11.5888849 L38.45131,0.0254663304 C38.6223225,-0.0409900983 38.8275376,0.0254663304 38.8959426,0.191607402 C38.9643477,0.357748474 38.8959426,0.557117761 38.7249301,0.623574189 L10.952489,14.4132832 L8.62671805,21.7234903 C8.59251553,21.8896314 8.45570548,21.9560878 8.31889542,21.9560878 Z" id="Shape" fill="#074370"></path>
                            <path d="M8.24707175,21.1116229 C8.04592366,21.1116229 7.84477557,20.9837544 7.84477557,20.8239188 L6.91949434,11.3296823 C6.91949434,11.1378795 7.08041282,11.010011 7.28156091,10.9780439 C7.52293862,10.9780439 7.68385709,11.1059124 7.72408671,11.265748 L8.64936793,20.7599845 C8.64936793,20.9517873 8.48844946,21.1116229 8.24707175,21.1116229 C8.24707175,21.1116229 8.24707175,21.1116229 8.24707175,21.1116229 Z" id="Shape" fill="#074370"></path>
                            <path d="M21.9694068,4.22232458 C21.7990414,4.22232458 21.6627491,4.05408044 21.628676,3.88583629 C21.5946029,3.67553111 21.7308952,3.42316489 21.9012606,3.42316489 L26.4329805,2.53988313 C26.6033459,2.4978221 26.8077844,2.66606624 26.8077844,2.87637142 C26.8418575,3.08667661 26.7055652,3.33904282 26.5351998,3.33904282 L22.0034799,4.22232458 C22.0034799,4.22232458 22.0034799,4.22232458 21.9694068,4.22232458 Z" id="Shape" fill="#0C508E" opacity="0.5"></path>
                            <path d="M3.79729661,5.91125441 C3.63108588,5.91125441 3.49811729,5.78790623 3.46487515,5.66455804 C3.431633,5.51037281 3.56460158,5.32535054 3.73081231,5.32535054 L16.9279443,3.38261663 C17.094155,3.35177958 17.2936079,3.47512776 17.2936079,3.62931299 C17.32685,3.78349823 17.1938815,3.9685205 17.0276707,3.9685205 L3.83053875,5.91125441 C3.8637809,5.91125441 3.83053875,5.91125441 3.79729661,5.91125441 Z" id="Shape" fill="#0C508E" opacity="0.5"></path>
                            <path d="M18.5096474,17.7337632 C18.405855,17.7337632 18.33666,17.7017318 18.2674651,17.637669 C18.1290752,17.5095432 18.1290752,17.3173547 18.2674651,17.189229 L27.9547572,8.54074345 C28.093147,8.41261774 28.3007319,8.41261774 28.4391218,8.54074345 C28.5775116,8.66886916 28.5775116,8.86105773 28.4391218,8.98918344 L18.7518297,17.637669 C18.6826347,17.7017318 18.5788423,17.7337632 18.5096474,17.7337632 Z" id="Shape" fill="#0C508E" opacity="0.5"></path>
                        </g>
                        <g id="Group-45" transform="translate(68.862275, 108.782435)">
                            <g id="Group-44" transform="translate(14.631457, 12.256970) rotate(9.000000) translate(-14.631457, -12.256970) translate(1.593018, 2.180968)"></g>
                        </g>
                        <text id="Policy-Received" opacity="0.600000024" font-family="AvenirNext-DemiBold, Avenir Next" font-size="16" font-weight="500" fill="#030303">
                            <tspan x="335.329341" y="135.738523">Policy Received</tspan>
                        </text>
                        <g id="if_envelope_1291764" transform="translate(360.279441, 59.880240)" fill="#0E6C69" fill-rule="nonzero">
                            <path d="M49.031171,45.1618097 C49.4137725,45.4567532 49.4807718,46.0007984 49.1792748,46.376181 C49.0056055,46.5932801 48.7473054,46.7065868 48.485479,46.7065868 C48.2950599,46.7065868 48.1028776,46.6469062 47.9415502,46.5214904 L35.5995675,37.0071856 C35.2169661,36.7122422 35.1499667,36.1690619 35.4514637,35.7928144 C35.7520792,35.4182967 36.3039421,35.3508317 36.6891883,35.647505 L49.031171,45.1618097 Z M17.4427478,35.7928144 C17.7442448,36.1690619 17.6772455,36.7122422 17.294644,37.0071856 L4.95266134,46.5214904 C4.79045243,46.6469062 4.5991517,46.7065868 4.40873253,46.7065868 C4.14690619,46.7065868 3.88860612,46.5932801 3.71493679,46.376181 C3.41343979,46.0007984 3.48043912,45.4567532 3.86304059,45.1618097 L16.2050233,35.647505 C16.5893879,35.3508317 17.143014,35.4182967 17.4427478,35.7928144 Z M49.0205921,24.0409182 L29.6630739,38.5286094 C29.5193779,38.643646 28.0365768,39.7870925 26.4471058,39.7870925 C24.8655689,39.7870925 23.3942282,38.6003992 23.2311377,38.4654691 L3.874501,24.0417831 C3.48661011,23.7528942 3.41079508,23.2105788 3.70612109,22.8308716 C4.00056554,22.4485695 4.55331005,22.3759148 4.94031936,22.6648037 L24.3348636,37.1170326 C24.678676,37.3981371 25.6519295,38.0572189 26.4471058,38.0572189 C27.2660845,38.0572189 28.2604957,37.4154358 28.5752162,37.1680639 L47.9512475,22.6656687 C48.3382568,22.37332 48.893646,22.4502994 49.1872089,22.8291417 C49.4825349,23.208849 49.408483,23.7511643 49.0205921,24.0409182 Z M51.1310712,47.5715236 C51.1310712,49.0505655 49.9938456,50.166334 48.4863606,50.166334 L4.40785096,50.166334 C2.92416833,50.166334 1.76314039,49.0272122 1.76314039,47.5715236 L1.76314039,19.8935462 C1.76314039,17.8894877 2.56977711,16.2694611 4.01555223,15.422688 L23.4153859,2.69081836 C23.4312542,2.68130406 24.9836993,1.72987359 26.4471058,1.72987359 C27.9219727,1.72987359 29.445326,2.64670659 29.4462076,2.64670659 L48.905988,15.4417166 C50.7449434,16.5488357 51.1310712,18.474185 51.1310712,19.8935462 L51.1310712,47.5715236 Z M49.8580838,13.985163 L30.405356,1.19447771 C30.3260146,1.14604125 28.4412176,-2.13162821e-14 26.4471058,-2.13162821e-14 C24.4477046,-2.13162821e-14 22.543513,1.18409847 22.4500665,1.24464405 L3.07491683,13.9609448 C1.12047572,15.1017964 -6.39488462e-14,17.2641384 -6.39488462e-14,19.8935462 L-6.39488462e-14,47.5715236 C-6.39488462e-14,49.9968064 1.93592814,51.8962076 4.40785096,51.8962076 L48.4863606,51.8962076 C50.9582834,51.8962076 52.8942116,49.9968064 52.8942116,47.5715236 L52.8942116,19.8935462 C52.8942116,17.2624085 51.8054724,15.1588822 49.8580838,13.985163 Z" id="envelope"></path>
                        </g>
                    </g>
                </g>
            </g>
        </g>
    </g>
</svg>